<?xml version="1.0" encoding="utf-8"?>
<svg viewBox="0 0 500 500" xmlns="http://www.w3.org/2000/svg">
  <path fill="rgb(255,0,0)" stroke="rgb(255,0,0)" stroke-width="0" d="M 197.881 91.071 C 200.16 90.527 202.477 90.399 204.866 91.071 C 207.6 91.84 211.297 93.9 213.306 96.019 C 215.142 97.955 216.22 100.561 216.799 103.003 C 217.37 105.415 217.636 106.853 216.799 110.57 C 215.239 117.49 207.197 132.482 203.411 143.749 C 199.633 154.99 196.635 164.092 194.098 178.091 C 190.824 196.155 191.122 218.385 187.113 245.029 C 181.948 279.359 166.892 340.528 163.248 369.593 C 160.947 387.948 163.652 401.394 161.502 409.756 C 160.218 414.75 158.262 417.155 155.972 419.36 C 153.981 421.277 151.37 422.283 148.987 422.852 C 146.709 423.396 144.391 423.524 142.002 422.852 C 139.269 422.083 135.658 420.135 133.562 417.905 C 131.526 415.737 130.17 412.652 129.488 409.756 C 128.8 406.834 128.888 403.378 129.488 400.442 C 130.076 397.564 132.269 396.214 132.98 392.293 C 134.096 386.14 131.467 378.748 132.98 364.936 C 135.774 339.425 151.306 276.06 156.845 240.373 C 161.362 211.269 161.942 183.547 165.576 164.703 C 168.129 151.466 170.477 145.286 174.307 134.435 C 178.653 122.125 185.975 100.554 190.896 94.563 C 193.38 91.541 195.499 91.64 197.881 91.071 Z M 324.773 100.966 C 326.869 100.508 328.932 100.329 331.176 100.966 C 333.835 101.721 337.69 104.094 339.616 105.914 C 341.145 107.358 341.923 108.627 342.526 110.57 C 343.253 112.912 344.005 114.431 343.108 119.302 C 341.087 130.286 326.864 158.951 320.407 182.165 C 313.204 208.068 310.053 236.996 302.945 268.312 C 294.895 303.781 279.291 357.339 273.842 384.726 C 270.373 402.156 271.117 414.853 268.603 423.143 C 267.052 428.257 265.393 431.03 263.073 433.329 C 261.093 435.293 258.408 436.263 256.088 436.822 C 253.946 437.338 251.93 437.459 249.686 436.822 C 247.027 436.067 243.255 433.993 241.246 431.874 C 239.41 429.938 238.322 427.272 237.753 424.889 C 237.209 422.611 237.423 421.597 237.753 417.905 C 238.405 410.613 240.005 397.318 243.574 380.07 C 249.211 352.829 264.458 299.703 272.678 263.655 C 280.091 231.145 284.664 198.099 291.304 172.852 C 296.651 152.523 302.929 133.727 308.184 121.63 C 311.751 113.419 315.049 107.113 318.37 103.877 C 320.536 101.766 322.597 101.442 324.773 100.966 Z" style="fill: rgb(166, 209, 48); stroke: rgb(129, 151, 57); stroke-width: 2px;"/>
</svg>