<?xml version="1.0" encoding="utf-8"?>
<svg viewBox="0 0 500 500" xmlns="http://www.w3.org/2000/svg">
  <path fill="rgb(255,0,0)" stroke="rgb(255,0,0)" stroke-width="0" d="M 142.584 51.49 C 149.899 50.986 157.718 50.519 167.329 50.838 C 170.429 44.528 175.39 36.457 176.927 34.61 C 177.634 33.76 177.882 34.191 178.382 33.737 C 179.036 33.143 179.341 32.106 180.419 31.118 C 182.04 29.632 184.969 27.287 187.986 25.879 C 191.42 24.277 194.9 22.894 200.21 22.386 C 207.668 21.673 222.205 21.663 229.895 24.133 C 236.072 26.116 240.81 29.428 244.156 33.737 C 247.511 38.057 248.785 43.873 249.977 50.035 C 250.676 53.65 251.29 58.383 251.553 62.893 C 253.536 63.356 255.441 63.824 257.253 64.296 C 275.613 69.078 289.301 74.439 303.818 81.758 C 305.709 82.712 307.724 83.802 309.807 84.986 C 310.275 84.478 310.799 83.982 311.385 83.504 C 316.455 79.374 327.701 74.16 336.997 72.445 C 346.821 70.631 360.247 71.557 369.01 73.609 C 376.219 75.297 383.349 78.907 386.764 82.049 C 389.124 84.22 389.57 85.827 390.256 89.034 C 391.239 93.631 391.111 101.885 390.256 108.242 C 389.389 114.692 387.405 122.312 385.017 127.451 C 383.035 131.718 380.378 135.33 377.742 137.637 C 375.558 139.547 373.076 140.57 370.757 141.129 C 370.45 141.203 370.145 141.269 369.841 141.326 C 371.14 143.87 372.298 146.412 373.376 148.987 C 375.719 154.583 376.952 158.646 378.615 165.867 C 380.908 175.831 383.9 190.827 385.017 204.866 C 385.427 210.016 385.753 215.674 385.943 221.471 C 390.549 222.294 395.233 223.488 398.696 224.948 C 405.713 227.906 413.027 234.452 416.449 238.044 C 418.585 240.286 419.026 241.304 419.942 243.865 C 421.151 247.246 421.762 251.617 422.27 257.253 C 422.965 264.956 424.451 280.263 422.852 286.938 C 421.794 291.356 419.583 293.851 417.322 295.96 C 415.321 297.829 413.46 298.778 410.338 299.453 C 406.029 300.384 399.209 300.317 392.875 299.453 C 387.612 298.735 380.217 296.871 374.546 295.052 C 370.77 305.951 366.049 317.78 361.153 327.683 C 355.576 338.961 348.538 350.3 342.526 358.533 C 341.266 360.259 340.167 361.767 339.112 363.157 C 341.867 367.069 345.274 372.709 346.601 378.324 C 348.315 385.579 347.737 396.738 346.601 403.353 C 345.724 408.455 344.337 411.699 341.944 415.576 C 339.346 419.786 335.147 424.412 331.176 427.509 C 327.439 430.422 323.068 432.881 318.952 433.912 C 315.107 434.875 311.228 434.777 307.311 433.912 C 303.085 432.978 297.984 430.368 294.505 428.091 C 291.484 426.113 289.883 424.387 287.229 421.397 C 284.255 418.045 279.316 412.409 276.707 407.896 C 268.723 411.917 261.126 415.107 253.76 417.614 C 244.772 420.672 237.823 422.39 228.149 423.434 C 222.031 424.094 214.509 424.26 207.129 424.153 C 207.079 424.606 207.005 425.047 206.903 425.471 C 206.201 428.402 203.421 432.17 201.956 433.912 C 201.005 435.042 200.035 435.227 199.336 435.949 C 198.712 436.594 199.137 436.991 197.881 437.986 C 194.377 440.763 178.44 449.738 169.36 453.702 C 161.259 457.239 152.056 460.234 146.077 461.269 C 141.915 461.989 139.583 462.357 136.182 461.269 C 132.154 459.981 126.59 455.341 123.667 452.829 C 121.568 451.024 120.486 448.974 119.302 447.881 C 118.498 447.14 118.071 447.456 117.264 446.426 C 115.644 444.357 112.1 438.808 110.861 433.621 C 109.372 427.382 108.575 418.231 110.279 410.92 C 111.57 405.382 115.128 398.235 118.361 393.343 C 114.701 390.379 111.647 387.539 107.369 382.98 C 103.625 378.99 98.747 373.357 93.912 367.443 C 92.729 368.01 91.47 368.422 90.198 368.719 C 87.531 369.342 84.713 369.364 81.467 368.719 C 77.504 367.933 73.432 366.323 68.079 363.481 C 60.6 359.509 46.151 351.56 40.431 345.146 C 36.087 340.275 34.721 335.441 33.446 330.012 C 32.129 324.407 31.393 317.61 32.864 311.967 C 34.355 306.249 38.041 299.891 42.468 295.96 C 45.579 293.197 50.613 291.063 54.782 289.695 C 54.452 288.582 54.131 287.468 53.818 286.356 C 49.366 270.523 44.77 252.606 42.843 234.766 C 36.899 232.496 22.137 221.837 17.148 217.09 C 14.058 214.15 13.487 212.797 11.909 209.523 C 9.887 205.326 7.69 199.5 6.671 193.225 C 5.473 185.851 4.285 174.665 6.088 167.614 C 7.632 161.577 9.983 156.486 15.111 152.771 C 21.51 148.134 38.24 145.571 44.214 144.622 C 45.142 144.474 45.88 144.359 46.516 144.285 C 48.479 135.393 50.667 127.015 54.983 118.719 C 57.194 114.469 59.826 110.31 62.829 106.201 C 62.539 105.929 62.251 105.64 61.967 105.332 C 58.113 101.153 53.093 92.779 50.908 84.959 C 48.494 76.32 47.283 62.871 49.162 55.274 C 50.642 49.288 53.957 45.483 58.184 41.595 C 62.885 37.271 70.991 32.225 76.81 31.118 C 81.747 30.178 85.794 31.377 90.78 33.446 C 96.967 36.014 106.134 42.401 110.861 47.125 C 113.817 50.077 116 53.286 117.419 56.301 C 119.068 55.593 120.904 54.933 122.794 54.4 C 128.15 52.892 134.743 52.031 142.584 51.49 Z M 68.37 327.101 C 67.351 324.722 66.279 322.138 65.183 319.399 C 64.469 319.792 63.932 320.21 63.714 320.698 C 63.108 322.054 63.392 323.258 65.169 325.064 C 65.828 325.734 67 326.548 68.524 327.46 C 68.473 327.341 68.422 327.221 68.37 327.101 Z M 165.285 419.942 C 159.244 418.437 155.498 417.135 149.569 414.121 C 148.036 413.341 146.355 412.416 144.587 411.389 C 142.701 415.772 140.427 420.511 140.547 423.143 C 140.669 425.81 141.54 427.989 143.749 428.673 C 147.188 429.739 156.682 425.801 162.375 423.434 C 164.296 422.635 166.33 421.669 168.294 420.639 C 167.271 420.419 166.268 420.187 165.285 419.942 Z M 385.017 254.924 C 384.625 258.295 384.124 261.414 383.529 264.397 C 386.839 265.671 390.494 267.518 391.711 266.857 C 392.883 266.22 392.121 263.659 392.002 261.909 C 391.873 259.993 392.668 257.511 390.838 255.797 C 389.833 254.856 387.72 254.126 385.175 253.492 C 385.125 253.975 385.072 254.452 385.017 254.924 Z M 343.69 107.66 C 345.025 108.806 344.563 109.115 345.146 109.697 C 345.728 110.279 346.08 110.062 347.183 111.153 C 348.451 112.407 351.068 115.289 353.975 118.687 C 356.518 113.269 360.979 105.772 359.406 103.295 C 357.537 100.35 348.325 101.571 342.817 102.712 C 341.576 102.969 340.279 103.435 338.963 104.019 C 341.135 105.61 342.783 106.882 343.69 107.66 Z M 147.532 81.758 C 141.266 82.287 137.403 81.626 131.234 84.668 C 122.446 89.001 107.857 103.369 100.384 110.279 C 95.097 115.168 92.132 117.646 88.743 122.503 C 85.057 127.786 81.608 135.604 79.43 141.129 C 77.641 145.664 76.91 148.168 75.937 153.353 C 74.612 160.413 73.515 169.548 73.027 180.71 C 72.385 195.406 71.709 218.752 73.609 235.425 C 75.324 250.476 79.149 263.546 82.922 276.752 C 86.567 289.507 91.514 303.504 95.728 313.423 C 99.06 321.267 101.115 325.77 105.623 332.631 C 111.049 340.891 120.421 352.27 127.159 359.406 C 132.696 365.27 137.117 369.002 142.875 373.376 C 148.903 377.954 156.78 383.209 162.666 386.182 C 167.393 388.569 170.644 389.693 175.471 390.838 C 180.959 392.14 186.967 392.743 194.098 393.166 C 202.663 393.675 215.155 394.034 223.783 393.166 C 231.097 392.431 236.08 391.364 242.992 389.092 C 251.033 386.449 259.689 382.676 269.185 377.451 C 280.514 371.216 298.028 360.014 306.438 353.004 C 312.199 348.201 313.966 345.867 318.079 340.198 C 323.496 332.732 330.644 320.565 335.541 310.512 C 340.29 300.765 343.973 290.864 347.183 280.827 C 350.364 270.877 353.421 261.65 354.75 250.559 C 356.228 238.218 355.71 222.683 354.75 209.814 C 353.849 197.739 351.776 184.884 349.511 175.471 C 347.706 167.97 346.554 163.252 343.108 156.845 C 339.08 149.355 328.364 136.807 325.646 133.562 C 324.633 132.353 324.482 132.398 323.9 131.816 C 323.318 131.234 323.496 131.095 322.154 130.07 C 318.084 126.962 300.865 114.511 288.976 108.533 C 276.841 102.432 265.98 98.1 249.977 93.981 C 229.485 88.707 191.888 83.361 173.725 81.758 C 161.94 80.717 155.06 81.122 147.532 81.758 Z M 187.404 169.651 C 194.025 168.318 204.64 170.106 211.851 172.561 C 218.587 174.855 227.478 181.772 229.604 183.329 C 230.292 183.833 230.08 183.762 230.477 184.203 C 231.146 184.944 231.961 186.254 233.388 187.695 C 235.545 189.875 240.046 192.175 242.992 196.135 C 246.694 201.113 250.95 207.738 252.887 216.508 C 255.432 228.031 254.628 251.659 253.469 261.327 C 252.781 267.063 251.888 269.13 249.977 272.969 C 247.874 277.191 244.93 281.937 240.955 285.483 C 236.655 289.319 231.162 293.056 224.657 294.796 C 217.157 296.803 205.326 296.223 197.881 295.378 C 191.872 294.697 187.665 293.866 182.747 291.304 C 177.253 288.441 171.411 283.671 166.74 278.207 C 161.697 272.308 156.504 262.918 153.935 256.671 C 151.951 251.846 151.552 248.785 151.024 243.865 C 150.396 238 150.158 230.567 151.024 223.492 C 151.958 215.868 153.193 207.081 156.845 199.627 C 160.681 191.799 168.356 182.925 174.016 177.8 C 178.519 173.723 181.877 170.763 187.404 169.651 Z M 196.426 199.919 C 195.518 199.87 195.51 199.797 194.68 200.501 C 192.58 202.281 185.811 210.646 183.62 215.634 C 181.727 219.945 181.482 223.618 181.292 228.44 C 181.071 234.084 181.514 242.736 183.038 247.648 C 184.219 251.453 185.87 253.69 188.277 256.38 C 190.953 259.369 194.363 262.999 198.754 264.529 C 203.784 266.28 213.271 267.065 217.381 265.111 C 220.647 263.557 222.082 260.988 223.201 256.38 C 225.048 248.777 225.842 228.924 222.037 219.709 C 218.833 211.949 209.972 205.956 205.157 202.829 C 201.868 200.693 198.155 200.01 196.426 199.919 Z M 311.967 401.898 C 312.89 402.247 313.348 401.335 314.005 400.733 C 314.814 399.991 315.855 399.215 316.333 397.532 C 317.097 394.84 316.789 387.266 316.333 384.726 C 316.268 384.364 316.198 384.059 316.12 383.795 C 312.446 386.39 308.481 389.064 304.49 391.656 C 307.405 395.317 310.324 401.276 311.967 401.898 Z M 36.356 178.964 C 34.073 182.472 37.81 190.385 39.267 193.807 C 40.056 195.66 40.654 196.465 41.835 197.614 C 42.04 189.746 42.408 182.3 42.744 176.05 C 39.78 176.659 37.314 177.491 36.356 178.964 Z M 91.071 73.9 C 88.497 71.588 87.042 66.955 84.959 65.46 C 83.432 64.363 81.243 63.625 80.303 64.296 C 79.263 65.038 79.341 68.195 79.43 70.407 C 79.529 72.902 79.974 75.675 81.176 78.556 C 81.788 80.023 82.926 81.602 84.124 83.204 C 87.069 80.675 90.213 78.103 93.271 75.644 C 92.476 75.08 91.729 74.491 91.071 73.9 Z M 219.127 53.818 C 216.453 50.954 208.225 52.059 204.866 52.654 C 203.154 52.957 202.218 53.209 201.137 54.093 C 207.326 54.916 213.839 55.867 220.337 56.913 C 220.153 55.605 219.786 54.524 219.127 53.818 Z" style="fill: rgb(166, 209, 48); stroke: rgb(129, 151, 57); stroke-width: 2px;"/>
</svg>