<svg viewBox="0 0 500 500" width="24" height="24" xmlns="http://www.w3.org/2000/svg">
  <path fill="rgb(255,0,0)" stroke="rgb(255,0,0)" stroke-width="0" d="M 66.915 66.042 C 69.057 65.526 71.074 65.405 73.318 66.042 C 75.977 66.797 80.439 70.025 81.758 70.99 C 82.334 71.411 81.895 71.326 82.631 71.863 C 85.193 73.732 93.123 79.251 106.496 86.414 C 133.79 101.034 218.456 141.63 256.088 159.173 C 282.119 171.309 294.768 176.979 316.624 185.949 C 340.603 195.79 373.885 206.613 394.622 215.634 C 410.52 222.551 420.484 229.919 433.038 234.843 C 444.703 239.418 461.364 241.948 467.381 244.738 C 470.372 246.125 470.959 246.847 472.328 248.522 C 473.828 250.355 475.262 253.187 475.821 255.506 C 476.337 257.648 476.458 259.665 475.821 261.909 C 475.066 264.568 475.62 266.836 470.873 270.349 C 458.335 279.629 407.398 295.746 368.428 312.841 C 321.187 333.563 245.058 370.558 205.448 387.928 C 179.19 399.443 164.257 403.955 146.077 412.375 C 129.392 420.102 113.751 429.844 100.093 436.24 C 88.634 441.606 76.753 447.007 69.243 449.045 C 64.406 450.358 61.499 450.911 58.184 450.21 C 55.035 449.543 51.753 447.381 49.744 445.262 C 47.908 443.326 46.821 440.66 46.251 438.277 C 45.707 435.998 45.987 435.312 46.251 431.292 C 46.848 422.231 50.908 396.058 52.072 378.324 C 53.239 360.552 51.131 343.468 53.236 324.773 C 55.507 304.607 61.756 285.173 66.042 261.327 C 71.062 233.4 78.645 193.721 81.176 166.449 C 83.247 144.13 88.169 120.688 82.34 108.242 C 77.935 98.837 62.668 96.433 58.475 91.944 C 55.99 89.284 55.552 87.342 54.983 84.959 C 54.438 82.681 54.31 80.363 54.983 77.974 C 55.752 75.241 57.811 71.543 59.93 69.534 C 61.866 67.699 64.596 66.601 66.915 66.042 Z M 112.608 123.667 C 101.083 128.501 112.929 155.013 110.861 175.471 C 108.228 201.532 100.67 241.98 95.728 269.185 C 91.581 292.007 86.142 307.49 83.504 329.139 C 80.605 352.933 79.848 396.619 80.012 406.554 C 80.065 409.79 78.729 410.929 80.594 411.211 C 85.801 411.999 116.49 392.415 135.309 383.853 C 154.495 375.125 166.248 371.782 194.68 359.406 C 242.935 338.402 406.518 278.578 414.121 259.872 C 417.743 250.961 394.872 249.33 380.361 242.992 C 360.358 234.255 326.768 223.072 301.781 212.724 C 277.986 202.87 260.42 194.919 233.679 182.456 C 199.805 166.669 129.488 116.587 112.608 123.667 Z M 156.554 209.814 C 158.65 209.355 160.713 209.177 162.957 209.814 C 165.616 210.569 169.388 212.643 171.397 214.761 C 173.233 216.698 174.294 219.195 174.889 221.746 C 175.512 224.413 175.667 225.499 174.889 230.477 C 173.115 241.834 157.041 293.975 157.427 296.834 C 157.485 297.258 157.817 296.958 158.009 296.834 C 158.304 296.642 158.068 296.289 158.882 295.378 C 161.617 292.32 175.451 281.235 184.785 271.804 C 195.916 260.557 211.968 237.32 221.164 231.35 C 226.372 227.97 230.285 227.914 233.97 228.44 C 237.245 228.907 240.401 231.269 242.41 233.388 C 244.246 235.324 245.286 237.679 245.902 240.373 C 246.595 243.402 246.191 247.367 245.902 250.85 C 245.612 254.352 243.59 260.626 244.156 261.327 C 244.474 261.72 244.844 260.693 246.193 259.872 C 249.732 257.719 264.167 248.808 270.64 246.484 C 275.135 244.871 278.381 244.127 281.7 244.738 C 284.844 245.317 288.213 247.866 290.14 249.686 C 291.669 251.13 292.444 252.361 293.05 254.342 C 293.8 256.791 294.336 260.721 293.632 263.655 C 292.915 266.646 291.802 269.319 288.685 272.095 C 284.019 276.252 271.875 279.471 264.82 284.319 C 258.081 288.949 251.732 295.284 247.066 300.326 C 243.198 304.506 241.059 309.674 238.044 312.258 C 235.72 314.251 233.501 315.172 231.059 315.751 C 228.648 316.322 226.022 316.457 223.492 315.751 C 220.689 314.969 217.061 312.922 215.052 310.803 C 213.217 308.867 212.253 306.833 211.56 303.818 C 210.65 299.86 213.117 289.091 211.269 288.393 C 209.391 287.685 205.351 295.144 200.21 300.035 C 192.563 307.308 177.704 320.961 167.614 328.556 C 159.108 334.959 150.047 341.315 143.749 343.69 C 139.503 345.291 136.462 345.526 133.271 344.854 C 130.174 344.203 126.84 342.026 124.831 339.907 C 122.995 337.971 121.955 335.616 121.339 332.922 C 120.646 329.892 120.443 328.814 121.339 322.445 C 123.598 306.387 139.743 233.07 145.204 219.418 C 147.179 214.479 148.175 214.339 150.151 212.724 C 151.999 211.215 154.378 210.29 156.554 209.814 Z" style="fill: rgb(166, 209, 48); stroke: rgb(129, 151, 57); stroke-width: 2px;"/>
</svg>